<svg xmlns="http://www.w3.org/2000/svg" xmlns:xlink="http://www.w3.org/1999/xlink" xmlns:lucid="lucid" width="1763.13" height="1425.48"><g transform="translate(0 -19.541259949221057)" lucid:page-tab-id="tjrrFXeOP8ZE"><path d="M0 0h1760v2656H0z" fill="#fff"/><path d="M20 45.54a6 6 0 0 1 6-6h1711.13a6 6 0 0 1 6 6v1373.48a6 6 0 0 1-6 6H26a6 6 0 0 1-6-6z" stroke="#000" stroke-opacity="0" fill-opacity="0"/><path d="M104.3 511.56a6 6 0 0 1 6-6h228a6 6 0 0 1 6 6v68a6 6 0 0 1-6 6h-228a6 6 0 0 1-6-6z" stroke="#000" stroke-width="3" fill="#c1e4f7"/><use xlink:href="#a" transform="matrix(1,0,0,1,116.28941343471594,517.5643911172612) translate(43.30864197530863 31.77777777777778)"/><path d="M104.3 641.56a6 6 0 0 1 6-6h228a6 6 0 0 1 6 6v68a6 6 0 0 1-6 6h-228a6 6 0 0 1-6-6z" stroke="#000" stroke-width="3" fill="#c1e4f7"/><use xlink:href="#b" transform="matrix(1,0,0,1,116.28941343471594,647.5643911172612) translate(45.09876543209876 31.77777777777778)"/><path d="M104.3 771.56a6 6 0 0 1 6-6h228a6 6 0 0 1 6 6v68a6 6 0 0 1-6 6h-228a6 6 0 0 1-6-6z" stroke="#000" stroke-width="3" fill="#c1e4f7"/><use xlink:href="#c" transform="matrix(1,0,0,1,116.28941343471594,777.5643911172612) translate(47.567901234567906 31.77777777777778)"/><use xlink:href="#d" transform="matrix(1,0,0,1,116.28941343471594,777.5643911172612) translate(121.58024691358025 31.77777777777778)"/><path d="M104.3 251.56a6 6 0 0 1 6-6h228a6 6 0 0 1 6 6v68a6 6 0 0 1-6 6h-228a6 6 0 0 1-6-6z" stroke="#000" stroke-width="3" fill="#c1e4f7"/><use xlink:href="#e" transform="matrix(1,0,0,1,116.28941343471594,257.56439111726115) translate(47.59876543209876 31.77777777777778)"/><path d="M104.3 381.56a6 6 0 0 1 6-6h228a6 6 0 0 1 6 6v68a6 6 0 0 1-6 6h-228a6 6 0 0 1-6-6z" stroke="#000" stroke-width="3" fill="#c1e4f7"/><use xlink:href="#f" transform="matrix(1,0,0,1,116.28941343471594,387.56439111726115) translate(53.185185185185176 31.77777777777778)"/><path d="M1385.92 203.5h-102.66a6 6 0 0 0-6 6v263.7a6 6 0 0 1-6 6H1151.1" stroke="#282c33" stroke-width="2" fill="none"/><path d="M1401.18 203.5l-14.26 4.63v-9.27z" stroke="#282c33" stroke-width="2" fill="#282c33"/><path d="M1151.12 480.2h-4.02v-2h4.02z" stroke="#282c33" stroke-width=".05" fill="#282c33"/><path d="M346.75 155.56H518.3a6 6 0 0 1 6 6V473.2a6 6 0 0 0 6 6h324.6" stroke="#000" stroke-width="2" fill="none"/><path d="M346.78 156.56h-1.03v-2h1.03z" stroke="#000" stroke-width=".05"/><path d="M870.18 479.2l-14.27 4.65v-9.27z" stroke="#000" stroke-width="2"/><use xlink:href="#g" transform="matrix(1,0,0,1,387.1420059724233,130.2310577839278) translate(0 14.222222222222223)"/><path d="M346.75 285.56H518.3a6 6 0 0 1 6 6V473.2a6 6 0 0 0 6 6h324.6" stroke="#000" stroke-width="2" fill="none"/><path d="M346.78 286.56h-1.03v-2h1.03z" stroke="#000" stroke-width=".05"/><path d="M870.18 479.2l-14.27 4.65v-9.27z" stroke="#000" stroke-width="2"/><use xlink:href="#h" transform="matrix(1,0,0,1,378.87315325612116,260.2310577839278) translate(0 14.222222222222223)"/><path d="M346.75 415.56H518.3a6 6 0 0 1 6 6v51.65a6 6 0 0 0 6 6h324.6" stroke="#000" stroke-width="2" fill="none"/><path d="M346.78 416.56h-1.03v-2h1.03z" stroke="#000" stroke-width=".05"/><path d="M870.18 479.2l-14.27 4.65v-9.27z" stroke="#000" stroke-width="2"/><use xlink:href="#i" transform="matrix(1,0,0,1,382.2883839059282,390.2310577839278) translate(0 14.222222222222223)"/><use xlink:href="#j" transform="matrix(1,0,0,1,382.2883839059282,390.2310577839278) translate(39.45679012345679 14.222222222222223)"/><path d="M346.75 545.56H518.3a6 6 0 0 0 6-6V485.2a6 6 0 0 1 6-6h324.6" stroke="#000" stroke-width="2" fill="none"/><path d="M346.78 546.56h-1.03v-2h1.03z" stroke="#000" stroke-width=".05"/><path d="M870.18 479.2l-14.27 4.65v-9.27z" stroke="#000" stroke-width="2"/><use xlink:href="#k" transform="matrix(1,0,0,1,383.87280069780866,520.2310577839279) translate(0 14.222222222222223)"/><path d="M346.75 675.56H518.3a6 6 0 0 0 6-6V485.2a6 6 0 0 1 6-6h324.6" stroke="#000" stroke-width="2" fill="none"/><path d="M346.78 676.56h-1.03v-2h1.03z" stroke="#000" stroke-width=".05"/><path d="M870.18 479.2l-14.27 4.65v-9.27z" stroke="#000" stroke-width="2"/><use xlink:href="#l" transform="matrix(1,0,0,1,375.4868414844466,650.2310577839279) translate(0 14.222222222222223)"/><use xlink:href="#m" transform="matrix(1,0,0,1,375.4868414844466,650.2310577839279) translate(53.333333333333336 14.222222222222223)"/><path d="M346.75 805.56H518.3a6 6 0 0 0 6-6V485.2a6 6 0 0 1 6-6h324.6" stroke="#000" stroke-width="2" fill="none"/><path d="M346.78 806.56h-1.03v-2h1.03z" stroke="#000" stroke-width=".05"/><path d="M870.18 479.2l-14.27 4.65v-9.27z" stroke="#000" stroke-width="2"/><use xlink:href="#n" transform="matrix(1,0,0,1,380.8569121044394,780.2310577839279) translate(0 14.222222222222223)"/><path d="M664.3 106.56a6 6 0 0 1 6-6h68a6 6 0 0 1 6 6v734a6 6 0 0 1-6 6h-68a6 6 0 0 1-6-6z" stroke="#000" stroke-width="3" fill="#5abaa7"/><use xlink:href="#o" transform="matrix(1,0,0,1,676.2894134347159,112.56439111726115) translate(20.592592592592595 254.68402777777777)"/><use xlink:href="#p" transform="matrix(1,0,0,1,676.2894134347159,112.56439111726115) translate(20.006172839506174 281.35069444444446)"/><use xlink:href="#q" transform="matrix(1,0,0,1,676.2894134347159,112.56439111726115) translate(19.358024691358025 308.01736111111114)"/><use xlink:href="#r" transform="matrix(1,0,0,1,676.2894134347159,112.56439111726115) translate(21.24074074074074 334.6840277777778)"/><use xlink:href="#q" transform="matrix(1,0,0,1,676.2894134347159,112.56439111726115) translate(19.358024691358025 361.3506944444445)"/><use xlink:href="#s" transform="matrix(1,0,0,1,676.2894134347159,112.56439111726115) translate(20.006172839506174 388.0173611111112)"/><use xlink:href="#q" transform="matrix(1,0,0,1,676.2894134347159,112.56439111726115) translate(19.358024691358025 414.6840277777779)"/><use xlink:href="#t" transform="matrix(1,0,0,1,676.2894134347159,112.56439111726115) translate(21.82716049382716 441.35069444444457)"/><use xlink:href="#u" transform="matrix(1,0,0,1,676.2894134347159,112.56439111726115) translate(20.592592592592595 468.01736111111126)"/><path d="M55.96 1247.55a6 6 0 0 1 6-6h1622.6a6 6 0 0 1 6 6v108a6 6 0 0 1-6 6H61.95a6 6 0 0 1-6-6z" stroke="#282c33" stroke-width="3" fill="#aefe7d"/><use xlink:href="#v" transform="matrix(1,0,0,1,67.9628828224711,1253.5454975810649) translate(414.2222222222223 55.999999999999986)"/><use xlink:href="#w" transform="matrix(1,0,0,1,67.9628828224711,1253.5454975810649) translate(598.2222222222222 55.999999999999986)"/><use xlink:href="#x" transform="matrix(1,0,0,1,67.9628828224711,1253.5454975810649) translate(762.5555555555555 55.999999999999986)"/><use xlink:href="#y" transform="matrix(1,0,0,1,67.9628828224711,1253.5454975810649) translate(902.2222222222222 55.999999999999986)"/><use xlink:href="#z" transform="matrix(1,0,0,1,67.9628828224711,1253.5454975810649) translate(1044.2222222222222 55.999999999999986)"/><use xlink:href="#A" transform="matrix(1,0,0,1,67.9628828224711,1253.5454975810649) translate(1092.8888888888887 55.999999999999986)"/><g fill="none"><path d="M1639.88 929.56a6 6 0 0 1 6 6v29.47a6 6 0 0 1-6 6h-360a6 6 0 0 1-6-6v-29.47a6 6 0 0 1 6-6z"/><path d="M1273.9 929.56c0 5.53 4.47 10 10 10h166c5.5 0 10 4.48 10 10 0-5.52 4.46-10 10-10h165.98c5.52 0 10-4.47 10-10" stroke="#000" stroke-width="3"/></g><path d="M104.3 121.56a6 6 0 0 1 6-6h228a6 6 0 0 1 6 6v68a6 6 0 0 1-6 6h-228a6 6 0 0 1-6-6z" stroke="#000" stroke-width="3" fill="#c1e4f7"/><use xlink:href="#B" transform="matrix(1,0,0,1,116.28941343471594,127.56439111726115) translate(13.833333333333329 31.77777777777778)"/><use xlink:href="#C" transform="matrix(1,0,0,1,116.28941343471594,127.56439111726115) translate(57.04320987654321 31.77777777777778)"/><use xlink:href="#D" transform="matrix(1,0,0,1,116.28941343471594,127.56439111726115) translate(117.53703703703704 31.77777777777778)"/><path d="M89.3 106.56a6 6 0 0 1 6-6h228a6 6 0 0 1 6 6v68a6 6 0 0 1-6 6h-228a6 6 0 0 1-6-6z" stroke="#000" stroke-width="3" fill="#c1e4f7"/><use xlink:href="#B" transform="matrix(1,0,0,1,101.28941343471594,112.56439111726115) translate(13.833333333333329 31.77777777777778)"/><use xlink:href="#C" transform="matrix(1,0,0,1,101.28941343471594,112.56439111726115) translate(57.04320987654321 31.77777777777778)"/><use xlink:href="#D" transform="matrix(1,0,0,1,101.28941343471594,112.56439111726115) translate(117.53703703703704 31.77777777777778)"/><path d="M74.3 90.56a6 6 0 0 1 6-6h228a6 6 0 0 1 6 6v68a6 6 0 0 1-6 6h-228a6 6 0 0 1-6-6z" stroke="#000" stroke-width="3" fill="#c1e4f7"/><use xlink:href="#E" transform="matrix(1,0,0,1,86.28941343471594,96.56439111726112) translate(13.586419753086417 31.77777777777778)"/><use xlink:href="#C" transform="matrix(1,0,0,1,86.28941343471594,96.56439111726112) translate(56.7962962962963 31.77777777777778)"/><use xlink:href="#F" transform="matrix(1,0,0,1,86.28941343471594,96.56439111726112) translate(117.29012345679013 31.77777777777778)"/><g fill="none"><path d="M821.6 929.56a6 6 0 0 1 6 6v29.47a6 6 0 0 1-6 6H617.96a6 6 0 0 1-6-6v-29.47a6 6 0 0 1 6-6z"/><path d="M611.97 929.56c0 5.53 4.47 10 10 10h87.8c5.53 0 10 4.48 10 10 0-5.52 4.5-10 10-10h87.82c5.52 0 10-4.47 10-10" stroke="#000" stroke-width="3"/></g><g fill="none"><path d="M491.2 929.56a6 6 0 0 1 6 6v29.47a6 6 0 0 1-6 6H88.74a6 6 0 0 1-6-6v-29.47a6 6 0 0 1 6-6z"/><path d="M82.75 929.56c0 5.53 4.48 10 10 10h187.22c5.52 0 10 4.48 10 10 0-5.52 4.47-10 10-10H487.2c5.5 0 10-4.47 10-10" stroke="#000" stroke-width="3"/></g><path d="M1405.88 169.5a6 6 0 0 1 6-6h228a6 6 0 0 1 6 6v68a6 6 0 0 1-6 6h-228a6 6 0 0 1-6-6z" stroke="#000" stroke-width="3" fill="#ffdda6"/><use xlink:href="#G" transform="matrix(1,0,0,1,1417.880992751508,175.498930911961) translate(54.35802469135802 31.77777777777778)"/><path d="M1405.88 610.5a6 6 0 0 1 6-6h228a6 6 0 0 1 6 6v68a6 6 0 0 1-6 6h-228a6 6 0 0 1-6-6z" stroke="#000" stroke-width="3" fill="#ffdda6"/><use xlink:href="#G" transform="matrix(1,0,0,1,1417.880992751508,616.498930911961) translate(54.35802469135802 31.77777777777778)"/><path d="M1405.88 463.5a6 6 0 0 1 6-6h228a6 6 0 0 1 6 6v68a6 6 0 0 1-6 6h-228a6 6 0 0 1-6-6z" stroke="#000" stroke-width="3" fill="#ffdda6"/><use xlink:href="#G" transform="matrix(1,0,0,1,1417.880992751508,469.498930911961) translate(54.35802469135802 31.77777777777778)"/><path d="M1405.88 316.5a6 6 0 0 1 6-6h228a6 6 0 0 1 6 6v68a6 6 0 0 1-6 6h-228a6 6 0 0 1-6-6z" stroke="#000" stroke-width="3" fill="#ffdda6"/><use xlink:href="#G" transform="matrix(1,0,0,1,1417.880992751508,322.498930911961) translate(54.35802469135802 31.77777777777778)"/><path d="M1405.88 757.5a6 6 0 0 1 6-6h228a6 6 0 0 1 6 6v68a6 6 0 0 1-6 6h-228a6 6 0 0 1-6-6z" stroke="#000" stroke-width="3" fill="#ffdda6"/><use xlink:href="#G" transform="matrix(1,0,0,1,1417.880992751508,763.498930911961) translate(54.35802469135802 31.77777777777778)"/><path d="M1385.92 350.5h-102.66a6 6 0 0 0-6 6v116.7a6 6 0 0 1-6 6H1151.1" stroke="#282c33" stroke-width="2" fill="none"/><path d="M1401.18 350.5l-14.26 4.63v-9.27z" stroke="#282c33" stroke-width="2" fill="#282c33"/><path d="M1151.12 480.2h-4.02v-2h4.02z" stroke="#282c33" stroke-width=".05" fill="#282c33"/><path d="M1385.92 497.5h-102.66a6 6 0 0 1-6-6v-6.3a6 6 0 0 0-6-6H1151.1" stroke="#282c33" stroke-width="2" fill="none"/><path d="M1401.18 497.5l-14.26 4.63v-9.27z" stroke="#282c33" stroke-width="2" fill="#282c33"/><path d="M1151.12 480.2h-4.02v-2h4.02z" stroke="#282c33" stroke-width=".05" fill="#282c33"/><path d="M1385.92 644.5h-102.66a6 6 0 0 1-6-6V485.2a6 6 0 0 0-6-6H1151.1" stroke="#282c33" stroke-width="2" fill="none"/><path d="M1401.18 644.5l-14.26 4.63v-9.27z" stroke="#282c33" stroke-width="2" fill="#282c33"/><path d="M1151.12 480.2h-4.02v-2h4.02z" stroke="#282c33" stroke-width=".05" fill="#282c33"/><path d="M1385.92 791.5h-102.66a6 6 0 0 1-6-6V485.2a6 6 0 0 0-6-6H1151.1" stroke="#282c33" stroke-width="2" fill="none"/><path d="M1401.18 791.5l-14.26 4.63v-9.27z" stroke="#282c33" stroke-width="2" fill="#282c33"/><path d="M1151.12 480.2h-4.02v-2h4.02z" stroke="#282c33" stroke-width=".05" fill="#282c33"/><g><path d="M274.45 1189.1a6 6 0 0 1-6-6v-77.26a6 6 0 0 0-6-6h-10.6a2.3 2.3 0 0 1-1.55-4l36.3-32.7a6.67 6.67 0 0 1 8.92 0l36.3 32.7a2.3 2.3 0 0 1-1.53 4h-10.62a6 6 0 0 0-6 6v77.26a6 6 0 0 1-6 6z" stroke="#000" stroke-opacity="0" fill="#282c33"/></g><g><path d="M699.9 1189.1a6 6 0 0 1-6-6v-77.26a6 6 0 0 0-6-6h-10.6a2.3 2.3 0 0 1-1.55-4l36.3-32.7a6.67 6.67 0 0 1 8.92 0l36.3 32.7a2.3 2.3 0 0 1-1.53 4h-10.6a6 6 0 0 0-6 6v77.26a6 6 0 0 1-6 6z" stroke="#000" stroke-opacity="0" fill="#282c33"/></g><g><path d="M1443.5 1189.1a6 6 0 0 1-6-6v-77.26a6 6 0 0 0-6-6h-10.6a2.3 2.3 0 0 1-1.55-4l36.3-32.7a6.67 6.67 0 0 1 8.92 0l36.3 32.7a2.3 2.3 0 0 1-1.53 4h-10.62a6 6 0 0 0-6 6v77.26a6 6 0 0 1-6 6z" stroke="#000" stroke-opacity="0" fill="#282c33"/></g><path d="M51.76 958.9a6 6 0 0 1 6-6h464.4a6 6 0 0 1 6 6v57.67a6 6 0 0 1-6 6H57.77a6 6 0 0 1-6-6z" stroke="#000" stroke-opacity="0" fill="#fff" fill-opacity="0"/><g><use xlink:href="#H" transform="matrix(1,0,0,1,56.763633439916134,957.8992390776638) translate(22.20987654320993 34.36111111111111)"/><use xlink:href="#I" transform="matrix(1,0,0,1,56.763633439916134,957.8992390776638) translate(105.5061728395062 34.36111111111111)"/><use xlink:href="#J" transform="matrix(1,0,0,1,56.763633439916134,957.8992390776638) translate(238.39506172839506 34.36111111111111)"/></g><path d="M571.62 958.9a6 6 0 0 1 6-6h276.32a6 6 0 0 1 6 6v57.67a6 6 0 0 1-6 6H577.62a6 6 0 0 1-6-6z" stroke="#000" stroke-opacity="0" fill="#fff" fill-opacity="0"/><g><use xlink:href="#K" transform="matrix(1,0,0,1,576.6160766156831,957.8992390776638) translate(41.799382716049394 34.36111111111111)"/><use xlink:href="#L" transform="matrix(1,0,0,1,576.6160766156831,957.8992390776638) translate(161.929012345679 34.36111111111111)"/></g><path d="M1238.9 958.9a6 6 0 0 1 6-6h464.4a6 6 0 0 1 6 6v57.67a6 6 0 0 1-6 6h-464.4a6 6 0 0 1-6-6z" stroke="#000" stroke-opacity="0" fill="#fff" fill-opacity="0"/><g><use xlink:href="#H" transform="matrix(1,0,0,1,1243.8929446889647,957.8992390776638) translate(15.750000000000057 34.36111111111111)"/><use xlink:href="#M" transform="matrix(1,0,0,1,1243.8929446889647,957.8992390776638) translate(99.04629629629633 34.36111111111111)"/><use xlink:href="#J" transform="matrix(1,0,0,1,1243.8929446889647,957.8992390776638) translate(244.85493827160494 34.36111111111111)"/></g><path d="M984.92 428h157.98c3.88 0 5.54 1.74 5.54 5.5v18.23c0 3.76-1.66 5.5-5.54 5.5H984.92c-3.6 0-5.54-1.74-5.54-5.5V433.5c0-3.76 1.94-5.5 5.54-5.5zM880.33 501.2h158.26c3.6 0 5.25 1.73 5.25 5.5v18.22c0 3.76-1.66 5.5-5.26 5.5H880.32c-3.6 0-5.25-1.74-5.25-5.5V506.7c0-3.77 1.66-5.5 5.25-5.5zM895.27 447.97c2.77.86 5.8-.87 6.64-3.76 18.27-57 76.1-90.54 134.76-77.53 2.76.58 5.53-1.15 6.36-4.05l4.7-17.64v-.3c.83-2.9-1.1-5.78-4.15-6.36-73.87-16.78-147.47 25.75-169.88 98.07v.28c-.84 2.9.82 5.8 3.87 6.66zM1128.24 510.46c-2.77-.87-5.8.86-6.64 3.76-18.26 57-76.1 90.55-134.75 77.53-2.76-.58-5.53 1.16-6.36 4.05l-4.7 17.65v.28c-.84 2.9 1.1 5.8 4.14 6.37 73.87 16.78 147.47-25.75 169.88-98.07v-.3c.83-2.9-.83-5.78-3.87-6.65zM1111.36 379.7c0 8.96-7.2 16.2-16.05 16.2-8.84 0-16.03-7.24-16.03-16.2 0-8.98 7.2-16.2 16.04-16.2 8.87 0 16.06 7.22 16.06 16.2zM944.25 578.73c0 8.97-7.2 16.2-16.05 16.2-8.86 0-16.05-7.23-16.05-16.2 0-8.97 7.2-16.2 16.05-16.2 8.85 0 16.05 7.23 16.05 16.2z" stroke="#000" stroke-opacity="0" stroke-width="1.68" fill="#52bd94"/><defs><path fill="#333" d="M24-231v-30h32v30H24zM24 0v-190h32V0H24" id="N"/><path fill="#333" d="M117-194c89-4 53 116 60 194h-32v-121c0-31-8-49-39-48C34-167 62-67 57 0H25l-1-190h30c1 10-1 24 2 32 11-22 29-35 61-36" id="O"/><path fill="#333" d="M101-234c-31-9-42 10-38 44h38v23H63V0H32v-167H5v-23h27c-7-52 17-82 69-68v24" id="P"/><path fill="#333" d="M114-163C36-179 61-72 57 0H25l-1-190h30c1 12-1 29 2 39 6-27 23-49 58-41v29" id="Q"/><path fill="#333" d="M141-36C126-15 110 5 73 4 37 3 15-17 15-53c-1-64 63-63 125-63 3-35-9-54-41-54-24 1-41 7-42 31l-33-3c5-37 33-52 76-52 45 0 72 20 72 64v82c-1 20 7 32 28 27v20c-31 9-61-2-59-35zM48-53c0 20 12 33 32 33 41-3 63-29 60-74-43 2-92-5-92 41" id="R"/><path fill="#333" d="M135-143c-3-34-86-38-87 0 15 53 115 12 119 90S17 21 10-45l28-5c4 36 97 45 98 0-10-56-113-15-118-90-4-57 82-63 122-42 12 7 21 19 24 35" id="S"/><path fill="#333" d="M59-47c-2 24 18 29 38 22v24C64 9 27 4 27-40v-127H5v-23h24l9-43h21v43h35v23H59v120" id="T"/><path fill="#333" d="M84 4C-5 8 30-112 23-190h32v120c0 31 7 50 39 49 72-2 45-101 50-169h31l1 190h-30c-1-10 1-25-2-33-11 22-28 36-60 37" id="U"/><path fill="#333" d="M96-169c-40 0-48 33-48 73s9 75 48 75c24 0 41-14 43-38l32 2c-6 37-31 61-74 61-59 0-76-41-82-99-10-93 101-131 147-64 4 7 5 14 7 22l-32 3c-4-21-16-35-41-35" id="V"/><path fill="#333" d="M100-194c63 0 86 42 84 106H49c0 40 14 67 53 68 26 1 43-12 49-29l28 8c-11 28-37 45-77 45C44 4 14-33 15-96c1-61 26-98 85-98zm52 81c6-60-76-77-97-28-3 7-6 17-6 28h103" id="W"/><g id="a"><use transform="matrix(0.06172839506172839,0,0,0.06172839506172839,0,0)" xlink:href="#N"/><use transform="matrix(0.06172839506172839,0,0,0.06172839506172839,4.876543209876543,0)" xlink:href="#O"/><use transform="matrix(0.06172839506172839,0,0,0.06172839506172839,17.22222222222222,0)" xlink:href="#P"/><use transform="matrix(0.06172839506172839,0,0,0.06172839506172839,23.39506172839506,0)" xlink:href="#Q"/><use transform="matrix(0.06172839506172839,0,0,0.06172839506172839,30.74074074074074,0)" xlink:href="#R"/><use transform="matrix(0.06172839506172839,0,0,0.06172839506172839,43.08641975308642,0)" xlink:href="#S"/><use transform="matrix(0.06172839506172839,0,0,0.06172839506172839,54.19753086419753,0)" xlink:href="#T"/><use transform="matrix(0.06172839506172839,0,0,0.06172839506172839,60.370370370370374,0)" xlink:href="#Q"/><use transform="matrix(0.06172839506172839,0,0,0.06172839506172839,67.71604938271605,0)" xlink:href="#U"/><use transform="matrix(0.06172839506172839,0,0,0.06172839506172839,80.06172839506173,0)" xlink:href="#V"/><use transform="matrix(0.06172839506172839,0,0,0.06172839506172839,91.17283950617285,0)" xlink:href="#T"/><use transform="matrix(0.06172839506172839,0,0,0.06172839506172839,97.34567901234568,0)" xlink:href="#U"/><use transform="matrix(0.06172839506172839,0,0,0.06172839506172839,109.69135802469137,0)" xlink:href="#Q"/><use transform="matrix(0.06172839506172839,0,0,0.06172839506172839,117.03703703703705,0)" xlink:href="#W"/></g><path fill="#333" d="M100-194c62-1 85 37 85 99 1 63-27 99-86 99S16-35 15-95c0-66 28-99 85-99zM99-20c44 1 53-31 53-75 0-43-8-75-51-75s-53 32-53 75 10 74 51 75" id="X"/><path fill="#333" d="M210-169c-67 3-38 105-44 169h-31v-121c0-29-5-50-35-48C34-165 62-65 56 0H25l-1-190h30c1 10-1 24 2 32 10-44 99-50 107 0 11-21 27-35 58-36 85-2 47 119 55 194h-31v-121c0-29-5-49-35-48" id="Y"/><path fill="#333" d="M115-194c55 1 70 41 70 98S169 2 115 4C84 4 66-9 55-30l1 105H24l-1-265h31l2 30c10-21 28-34 59-34zm-8 174c40 0 45-34 45-75s-6-73-45-74c-42 0-51 32-51 76 0 43 10 73 51 73" id="Z"/><g id="b"><use transform="matrix(0.06172839506172839,0,0,0.06172839506172839,0,0)" xlink:href="#V"/><use transform="matrix(0.06172839506172839,0,0,0.06172839506172839,11.11111111111111,0)" xlink:href="#X"/><use transform="matrix(0.06172839506172839,0,0,0.06172839506172839,23.45679012345679,0)" xlink:href="#O"/><use transform="matrix(0.06172839506172839,0,0,0.06172839506172839,35.80246913580247,0)" xlink:href="#S"/><use transform="matrix(0.06172839506172839,0,0,0.06172839506172839,46.91358024691358,0)" xlink:href="#U"/><use transform="matrix(0.06172839506172839,0,0,0.06172839506172839,59.25925925925926,0)" xlink:href="#Y"/><use transform="matrix(0.06172839506172839,0,0,0.06172839506172839,77.71604938271605,0)" xlink:href="#Z"/><use transform="matrix(0.06172839506172839,0,0,0.06172839506172839,90.06172839506173,0)" xlink:href="#T"/><use transform="matrix(0.06172839506172839,0,0,0.06172839506172839,96.23456790123457,0)" xlink:href="#N"/><use transform="matrix(0.06172839506172839,0,0,0.06172839506172839,101.11111111111111,0)" xlink:href="#X"/><use transform="matrix(0.06172839506172839,0,0,0.06172839506172839,113.4567901234568,0)" xlink:href="#O"/></g><path fill="#333" d="M108 0H70L1-190h34L89-25l56-165h34" id="aa"/><path fill="#333" d="M85-194c31 0 48 13 60 33l-1-100h32l1 261h-30c-2-10 0-23-3-31C134-8 116 4 85 4 32 4 16-35 15-94c0-66 23-100 70-100zm9 24c-40 0-46 34-46 75 0 40 6 74 45 74 42 0 51-32 51-76 0-42-9-74-50-73" id="ab"/><g id="c"><use transform="matrix(0.06172839506172839,0,0,0.06172839506172839,0,0)" xlink:href="#aa"/><use transform="matrix(0.06172839506172839,0,0,0.06172839506172839,11.11111111111111,0)" xlink:href="#W"/><use transform="matrix(0.06172839506172839,0,0,0.06172839506172839,23.45679012345679,0)" xlink:href="#O"/><use transform="matrix(0.06172839506172839,0,0,0.06172839506172839,35.80246913580247,0)" xlink:href="#ab"/><use transform="matrix(0.06172839506172839,0,0,0.06172839506172839,48.148148148148145,0)" xlink:href="#X"/><use transform="matrix(0.06172839506172839,0,0,0.06172839506172839,60.49382716049382,0)" xlink:href="#Q"/></g><path fill="#333" d="M24 0v-261h32V0H24" id="ac"/><g id="d"><use transform="matrix(0.06172839506172839,0,0,0.06172839506172839,0,0)" xlink:href="#T"/><use transform="matrix(0.06172839506172839,0,0,0.06172839506172839,6.172839506172839,0)" xlink:href="#X"/><use transform="matrix(0.06172839506172839,0,0,0.06172839506172839,18.51851851851852,0)" xlink:href="#X"/><use transform="matrix(0.06172839506172839,0,0,0.06172839506172839,30.864197530864196,0)" xlink:href="#ac"/><use transform="matrix(0.06172839506172839,0,0,0.06172839506172839,35.74074074074074,0)" xlink:href="#S"/></g><path fill="#333" d="M143 0L79-87 56-68V0H24v-261h32v163l83-92h37l-77 82L181 0h-38" id="ad"/><g id="e"><use transform="matrix(0.06172839506172839,0,0,0.06172839506172839,0,0)" xlink:href="#Y"/><use transform="matrix(0.06172839506172839,0,0,0.06172839506172839,18.456790123456788,0)" xlink:href="#R"/><use transform="matrix(0.06172839506172839,0,0,0.06172839506172839,30.80246913580247,0)" xlink:href="#Q"/><use transform="matrix(0.06172839506172839,0,0,0.06172839506172839,38.148148148148145,0)" xlink:href="#ad"/><use transform="matrix(0.06172839506172839,0,0,0.06172839506172839,49.25925925925925,0)" xlink:href="#W"/><use transform="matrix(0.06172839506172839,0,0,0.06172839506172839,61.60493827160493,0)" xlink:href="#T"/><use transform="matrix(0.06172839506172839,0,0,0.06172839506172839,67.77777777777777,0)" xlink:href="#Z"/><use transform="matrix(0.06172839506172839,0,0,0.06172839506172839,80.12345679012346,0)" xlink:href="#ac"/><use transform="matrix(0.06172839506172839,0,0,0.06172839506172839,85,0)" xlink:href="#R"/><use transform="matrix(0.06172839506172839,0,0,0.06172839506172839,97.34567901234568,0)" xlink:href="#V"/><use transform="matrix(0.06172839506172839,0,0,0.06172839506172839,108.4567901234568,0)" xlink:href="#W"/></g><path fill="#333" d="M177-190C167-65 218 103 67 71c-23-6-38-20-44-43l32-5c15 47 100 32 89-28v-30C133-14 115 1 83 1 29 1 15-40 15-95c0-56 16-97 71-98 29-1 48 16 59 35 1-10 0-23 2-32h30zM94-22c36 0 50-32 50-73 0-42-14-75-50-75-39 0-46 34-46 75s6 73 46 73" id="ae"/><g id="f"><use transform="matrix(0.06172839506172839,0,0,0.06172839506172839,0,0)" xlink:href="#Q"/><use transform="matrix(0.06172839506172839,0,0,0.06172839506172839,7.345679012345679,0)" xlink:href="#W"/><use transform="matrix(0.06172839506172839,0,0,0.06172839506172839,19.691358024691358,0)" xlink:href="#ae"/><use transform="matrix(0.06172839506172839,0,0,0.06172839506172839,32.03703703703704,0)" xlink:href="#N"/><use transform="matrix(0.06172839506172839,0,0,0.06172839506172839,36.91358024691358,0)" xlink:href="#S"/><use transform="matrix(0.06172839506172839,0,0,0.06172839506172839,48.0246913580247,0)" xlink:href="#T"/><use transform="matrix(0.06172839506172839,0,0,0.06172839506172839,54.19753086419754,0)" xlink:href="#Q"/><use transform="matrix(0.06172839506172839,0,0,0.06172839506172839,61.543209876543216,0)" xlink:href="#R"/><use transform="matrix(0.06172839506172839,0,0,0.06172839506172839,73.8888888888889,0)" xlink:href="#T"/><use transform="matrix(0.06172839506172839,0,0,0.06172839506172839,80.06172839506173,0)" xlink:href="#N"/><use transform="matrix(0.06172839506172839,0,0,0.06172839506172839,84.93827160493828,0)" xlink:href="#X"/><use transform="matrix(0.06172839506172839,0,0,0.06172839506172839,97.28395061728396,0)" xlink:href="#O"/></g><path fill="#333" d="M115-194c53 0 69 39 70 98 0 66-23 100-70 100C84 3 66-7 56-30L54 0H23l1-261h32v101c10-23 28-34 59-34zm-8 174c40 0 45-34 45-75 0-40-5-75-45-74-42 0-51 32-51 76 0 43 10 73 51 73" id="af"/><path fill="#333" d="M106-169C34-169 62-67 57 0H25v-261h32l-1 103c12-21 28-36 61-36 89 0 53 116 60 194h-32v-121c2-32-8-49-39-48" id="ag"/><g id="g"><use transform="matrix(0.04938271604938272,0,0,0.04938271604938272,0,0)" xlink:href="#af"/><use transform="matrix(0.04938271604938272,0,0,0.04938271604938272,9.876543209876544,0)" xlink:href="#W"/><use transform="matrix(0.04938271604938272,0,0,0.04938271604938272,19.75308641975309,0)" xlink:href="#ag"/><use transform="matrix(0.04938271604938272,0,0,0.04938271604938272,29.629629629629633,0)" xlink:href="#R"/><use transform="matrix(0.04938271604938272,0,0,0.04938271604938272,39.50617283950618,0)" xlink:href="#aa"/><use transform="matrix(0.04938271604938272,0,0,0.04938271604938272,48.39506172839506,0)" xlink:href="#N"/><use transform="matrix(0.04938271604938272,0,0,0.04938271604938272,52.2962962962963,0)" xlink:href="#X"/><use transform="matrix(0.04938271604938272,0,0,0.04938271604938272,62.17283950617284,0)" xlink:href="#Q"/></g><g id="h"><use transform="matrix(0.04938271604938272,0,0,0.04938271604938272,0,0)" xlink:href="#V"/><use transform="matrix(0.04938271604938272,0,0,0.04938271604938272,8.88888888888889,0)" xlink:href="#X"/><use transform="matrix(0.04938271604938272,0,0,0.04938271604938272,18.765432098765434,0)" xlink:href="#Y"/><use transform="matrix(0.04938271604938272,0,0,0.04938271604938272,33.53086419753087,0)" xlink:href="#Y"/><use transform="matrix(0.04938271604938272,0,0,0.04938271604938272,48.296296296296305,0)" xlink:href="#W"/><use transform="matrix(0.04938271604938272,0,0,0.04938271604938272,58.17283950617284,0)" xlink:href="#Q"/><use transform="matrix(0.04938271604938272,0,0,0.04938271604938272,64.0493827160494,0)" xlink:href="#V"/><use transform="matrix(0.04938271604938272,0,0,0.04938271604938272,72.93827160493828,0)" xlink:href="#W"/></g><g id="i"><use transform="matrix(0.04938271604938272,0,0,0.04938271604938272,0,0)" xlink:href="#U"/><use transform="matrix(0.04938271604938272,0,0,0.04938271604938272,9.876543209876544,0)" xlink:href="#S"/><use transform="matrix(0.04938271604938272,0,0,0.04938271604938272,18.765432098765434,0)" xlink:href="#W"/><use transform="matrix(0.04938271604938272,0,0,0.04938271604938272,28.641975308641978,0)" xlink:href="#Q"/></g><g id="j"><use transform="matrix(0.04938271604938272,0,0,0.04938271604938272,0,0)" xlink:href="#Z"/><use transform="matrix(0.04938271604938272,0,0,0.04938271604938272,9.876543209876544,0)" xlink:href="#Q"/><use transform="matrix(0.04938271604938272,0,0,0.04938271604938272,15.753086419753087,0)" xlink:href="#X"/><use transform="matrix(0.04938271604938272,0,0,0.04938271604938272,25.629629629629633,0)" xlink:href="#P"/><use transform="matrix(0.04938271604938272,0,0,0.04938271604938272,30.567901234567906,0)" xlink:href="#N"/><use transform="matrix(0.04938271604938272,0,0,0.04938271604938272,34.46913580246914,0)" xlink:href="#ac"/><use transform="matrix(0.04938271604938272,0,0,0.04938271604938272,38.370370370370374,0)" xlink:href="#W"/></g><g id="k"><use transform="matrix(0.04938271604938272,0,0,0.04938271604938272,0,0)" xlink:href="#Z"/><use transform="matrix(0.04938271604938272,0,0,0.04938271604938272,9.876543209876544,0)" xlink:href="#Q"/><use transform="matrix(0.04938271604938272,0,0,0.04938271604938272,15.753086419753087,0)" xlink:href="#X"/><use transform="matrix(0.04938271604938272,0,0,0.04938271604938272,25.629629629629633,0)" xlink:href="#aa"/><use transform="matrix(0.04938271604938272,0,0,0.04938271604938272,34.51851851851852,0)" xlink:href="#N"/><use transform="matrix(0.04938271604938272,0,0,0.04938271604938272,38.41975308641975,0)" xlink:href="#S"/><use transform="matrix(0.04938271604938272,0,0,0.04938271604938272,47.308641975308646,0)" xlink:href="#N"/><use transform="matrix(0.04938271604938272,0,0,0.04938271604938272,51.20987654320988,0)" xlink:href="#X"/><use transform="matrix(0.04938271604938272,0,0,0.04938271604938272,61.086419753086425,0)" xlink:href="#O"/><use transform="matrix(0.04938271604938272,0,0,0.04938271604938272,70.96296296296296,0)" xlink:href="#N"/><use transform="matrix(0.04938271604938272,0,0,0.04938271604938272,74.8641975308642,0)" xlink:href="#O"/><use transform="matrix(0.04938271604938272,0,0,0.04938271604938272,84.74074074074075,0)" xlink:href="#ae"/></g><g id="l"><use transform="matrix(0.04938271604938272,0,0,0.04938271604938272,0,0)" xlink:href="#U"/><use transform="matrix(0.04938271604938272,0,0,0.04938271604938272,9.876543209876544,0)" xlink:href="#S"/><use transform="matrix(0.04938271604938272,0,0,0.04938271604938272,18.765432098765434,0)" xlink:href="#R"/><use transform="matrix(0.04938271604938272,0,0,0.04938271604938272,28.641975308641978,0)" xlink:href="#ae"/><use transform="matrix(0.04938271604938272,0,0,0.04938271604938272,38.51851851851852,0)" xlink:href="#W"/></g><g id="m"><use transform="matrix(0.04938271604938272,0,0,0.04938271604938272,0,0)" xlink:href="#Y"/><use transform="matrix(0.04938271604938272,0,0,0.04938271604938272,14.765432098765434,0)" xlink:href="#W"/><use transform="matrix(0.04938271604938272,0,0,0.04938271604938272,24.641975308641978,0)" xlink:href="#T"/><use transform="matrix(0.04938271604938272,0,0,0.04938271604938272,29.58024691358025,0)" xlink:href="#Q"/><use transform="matrix(0.04938271604938272,0,0,0.04938271604938272,35.45679012345679,0)" xlink:href="#N"/><use transform="matrix(0.04938271604938272,0,0,0.04938271604938272,39.358024691358025,0)" xlink:href="#V"/><use transform="matrix(0.04938271604938272,0,0,0.04938271604938272,48.24691358024691,0)" xlink:href="#S"/></g><g id="n"><use transform="matrix(0.04938271604938272,0,0,0.04938271604938272,0,0)" xlink:href="#N"/><use transform="matrix(0.04938271604938272,0,0,0.04938271604938272,3.901234567901235,0)" xlink:href="#O"/><use transform="matrix(0.04938271604938272,0,0,0.04938271604938272,13.777777777777779,0)" xlink:href="#T"/><use transform="matrix(0.04938271604938272,0,0,0.04938271604938272,18.71604938271605,0)" xlink:href="#W"/><use transform="matrix(0.04938271604938272,0,0,0.04938271604938272,28.592592592592595,0)" xlink:href="#Q"/><use transform="matrix(0.04938271604938272,0,0,0.04938271604938272,34.46913580246914,0)" xlink:href="#R"/><use transform="matrix(0.04938271604938272,0,0,0.04938271604938272,44.345679012345684,0)" xlink:href="#V"/><use transform="matrix(0.04938271604938272,0,0,0.04938271604938272,53.23456790123457,0)" xlink:href="#T"/><use transform="matrix(0.04938271604938272,0,0,0.04938271604938272,58.17283950617284,0)" xlink:href="#N"/><use transform="matrix(0.04938271604938272,0,0,0.04938271604938272,62.074074074074076,0)" xlink:href="#X"/><use transform="matrix(0.04938271604938272,0,0,0.04938271604938272,71.95061728395062,0)" xlink:href="#O"/><use transform="matrix(0.04938271604938272,0,0,0.04938271604938272,81.82716049382717,0)" xlink:href="#S"/></g><path fill="#333" d="M30-248c87 1 191-15 191 75 0 78-77 80-158 76V0H30v-248zm33 125c57 0 124 11 124-50 0-59-68-47-124-48v98" id="ah"/><use transform="matrix(0.06172839506172839,0,0,0.06172839506172839,0,0)" xlink:href="#ah" id="o"/><path fill="#333" d="M233-177c-1 41-23 64-60 70L243 0h-38l-65-103H63V0H30v-248c88 3 205-21 203 71zM63-129c60-2 137 13 137-47 0-61-80-42-137-45v92" id="ai"/><use transform="matrix(0.06172839506172839,0,0,0.06172839506172839,0,0)" xlink:href="#ai" id="p"/><path fill="#333" d="M140-251c81 0 123 46 123 126C263-46 219 4 140 4 59 4 17-45 17-125s42-126 123-126zm0 227c63 0 89-41 89-101s-29-99-89-99c-61 0-89 39-89 99S79-25 140-24" id="aj"/><use transform="matrix(0.06172839506172839,0,0,0.06172839506172839,0,0)" xlink:href="#aj" id="q"/><path fill="#333" d="M127-220V0H93v-220H8v-28h204v28h-85" id="ak"/><use transform="matrix(0.06172839506172839,0,0,0.06172839506172839,0,0)" xlink:href="#ak" id="r"/><path fill="#333" d="M212-179c-10-28-35-45-73-45-59 0-87 40-87 99 0 60 29 101 89 101 43 0 62-24 78-52l27 14C228-24 195 4 139 4 59 4 22-46 18-125c-6-104 99-153 187-111 19 9 31 26 39 46" id="al"/><use transform="matrix(0.06172839506172839,0,0,0.06172839506172839,0,0)" xlink:href="#al" id="s"/><path fill="#333" d="M30 0v-248h33v221h125V0H30" id="am"/><use transform="matrix(0.06172839506172839,0,0,0.06172839506172839,0,0)" xlink:href="#am" id="t"/><path fill="#333" d="M185-189c-5-48-123-54-124 2 14 75 158 14 163 119 3 78-121 87-175 55-17-10-28-26-33-46l33-7c5 56 141 63 141-1 0-78-155-14-162-118-5-82 145-84 179-34 5 7 8 16 11 25" id="an"/><use transform="matrix(0.06172839506172839,0,0,0.06172839506172839,0,0)" xlink:href="#an" id="u"/><path fill="#333" d="M230 0l2-204L168 0h-37L68-204 70 0H24v-248h70l56 185 57-185h69V0h-46" id="ao"/><path fill="#333" d="M133-34C117-15 103 5 69 4 32 3 11-16 11-54c-1-60 55-63 116-61 1-26-3-47-28-47-18 1-26 9-28 27l-52-2c7-38 36-58 82-57s74 22 75 68l1 82c-1 14 12 18 25 15v27c-30 8-71 5-69-32zm-48 3c29 0 43-24 42-57-32 0-66-3-65 30 0 17 8 27 23 27" id="ap"/><path fill="#333" d="M135-194c87-1 58 113 63 194h-50c-7-57 23-157-34-157-59 0-34 97-39 157H25l-1-190h47c2 12-1 28 3 38 12-26 28-41 61-42" id="aq"/><path fill="#333" d="M195-6C206 82 75 100 31 46c-4-6-6-13-8-21l49-6c3 16 16 24 34 25 40 0 42-37 40-79-11 22-30 35-61 35-53 0-70-43-70-97 0-56 18-96 73-97 30 0 46 14 59 34l2-30h47zm-90-29c32 0 41-27 41-63 0-35-9-62-40-62-32 0-39 29-40 63 0 36 9 62 39 62" id="ar"/><path fill="#333" d="M185-48c-13 30-37 53-82 52C43 2 14-33 14-96s30-98 90-98c62 0 83 45 84 108H66c0 31 8 55 39 56 18 0 30-7 34-22zm-45-69c5-46-57-63-70-21-2 6-4 13-4 21h74" id="as"/><path fill="#333" d="M88-194c31-1 46 15 58 34l-1-101h50l1 261h-48c-2-10 0-23-3-31C134-8 116 4 84 4 32 4 16-41 15-95c0-56 19-97 73-99zm17 164c33 0 40-30 41-66 1-37-9-64-41-64s-38 30-39 65c0 43 13 65 39 65" id="at"/><g id="v"><use transform="matrix(0.11111111111111108,0,0,0.11111111111111108,0,0)" xlink:href="#ao"/><use transform="matrix(0.11111111111111108,0,0,0.11111111111111108,33.222222222222214,0)" xlink:href="#ap"/><use transform="matrix(0.11111111111111108,0,0,0.11111111111111108,55.44444444444443,0)" xlink:href="#aq"/><use transform="matrix(0.11111111111111108,0,0,0.11111111111111108,79.77777777777776,0)" xlink:href="#ap"/><use transform="matrix(0.11111111111111108,0,0,0.11111111111111108,101.99999999999997,0)" xlink:href="#ar"/><use transform="matrix(0.11111111111111108,0,0,0.11111111111111108,126.3333333333333,0)" xlink:href="#as"/><use transform="matrix(0.11111111111111108,0,0,0.11111111111111108,148.55555555555551,0)" xlink:href="#at"/></g><path fill="#333" d="M169-182c-1-43-94-46-97-3 18 66 151 10 154 114 3 95-165 93-204 36-6-8-10-19-12-30l50-8c3 46 112 56 116 5-17-69-150-10-154-114-4-87 153-88 188-35 5 8 8 18 10 28" id="au"/><path fill="#333" d="M190-63c-7 42-38 67-86 67-59 0-84-38-90-98-12-110 154-137 174-36l-49 2c-2-19-15-32-35-32-30 0-35 28-38 64-6 74 65 87 74 30" id="av"/><path fill="#333" d="M114-157C55-157 80-60 75 0H25v-261h50l-1 109c12-26 28-41 61-42 86-1 58 113 63 194h-50c-7-57 23-157-34-157" id="aw"/><path fill="#333" d="M220-157c-53 9-28 100-34 157h-49v-107c1-27-5-49-29-50C55-147 81-57 75 0H25l-1-190h47c2 12-1 28 3 38 10-53 101-56 108 0 13-22 24-43 59-42 82 1 51 116 57 194h-49v-107c-1-25-5-48-29-50" id="ax"/><g id="w"><use transform="matrix(0.11111111111111108,0,0,0.11111111111111108,0,0)" xlink:href="#au"/><use transform="matrix(0.11111111111111108,0,0,0.11111111111111108,26.666666666666657,0)" xlink:href="#av"/><use transform="matrix(0.11111111111111108,0,0,0.11111111111111108,48.88888888888887,0)" xlink:href="#aw"/><use transform="matrix(0.11111111111111108,0,0,0.11111111111111108,73.2222222222222,0)" xlink:href="#as"/><use transform="matrix(0.11111111111111108,0,0,0.11111111111111108,95.44444444444441,0)" xlink:href="#ax"/><use transform="matrix(0.11111111111111108,0,0,0.11111111111111108,130.99999999999994,0)" xlink:href="#ap"/></g><path fill="#333" d="M67-93c0 74 22 123 53 168H70C40 30 18-18 18-93s22-123 52-168h50c-32 44-53 94-53 168" id="ay"/><path fill="#333" d="M137-138c1-29-70-34-71-4 15 46 118 7 119 86 1 83-164 76-172 9l43-7c4 19 20 25 44 25 33 8 57-30 24-41C81-84 22-81 20-136c-2-80 154-74 161-7" id="az"/><path fill="#333" d="M25-224v-37h50v37H25zM25 0v-190h50V0H25" id="aA"/><path fill="#333" d="M25 0v-261h50V0H25" id="aB"/><g id="x"><use transform="matrix(0.11111111111111108,0,0,0.11111111111111108,0,0)" xlink:href="#ay"/><use transform="matrix(0.11111111111111108,0,0,0.11111111111111108,13.222222222222218,0)" xlink:href="#az"/><use transform="matrix(0.11111111111111108,0,0,0.11111111111111108,35.44444444444443,0)" xlink:href="#aA"/><use transform="matrix(0.11111111111111108,0,0,0.11111111111111108,46.555555555555536,0)" xlink:href="#aq"/><use transform="matrix(0.11111111111111108,0,0,0.11111111111111108,70.88888888888886,0)" xlink:href="#ar"/><use transform="matrix(0.11111111111111108,0,0,0.11111111111111108,95.22222222222219,0)" xlink:href="#aB"/><use transform="matrix(0.11111111111111108,0,0,0.11111111111111108,106.33333333333329,0)" xlink:href="#as"/></g><path fill="#333" d="M110-194c64 0 96 36 96 99 0 64-35 99-97 99-61 0-95-36-95-99 0-62 34-99 96-99zm-1 164c35 0 45-28 45-65 0-40-10-65-43-65-34 0-45 26-45 65 0 36 10 65 43 65" id="aC"/><path fill="#333" d="M85 4C-2 5 27-109 22-190h50c7 57-23 150 33 157 60-5 35-97 40-157h50l1 190h-47c-2-12 1-28-3-38-12 25-28 42-61 42" id="aD"/><path fill="#333" d="M135-150c-39-12-60 13-60 57V0H25l-1-190h47c2 13-1 29 3 40 6-28 27-53 61-41v41" id="aE"/><g id="y"><use transform="matrix(0.11111111111111108,0,0,0.11111111111111108,0,0)" xlink:href="#az"/><use transform="matrix(0.11111111111111108,0,0,0.11111111111111108,22.222222222222214,0)" xlink:href="#aC"/><use transform="matrix(0.11111111111111108,0,0,0.11111111111111108,46.55555555555554,0)" xlink:href="#aD"/><use transform="matrix(0.11111111111111108,0,0,0.11111111111111108,70.88888888888887,0)" xlink:href="#aE"/><use transform="matrix(0.11111111111111108,0,0,0.11111111111111108,86.44444444444443,0)" xlink:href="#av"/><use transform="matrix(0.11111111111111108,0,0,0.11111111111111108,108.66666666666664,0)" xlink:href="#as"/></g><path fill="#333" d="M121-226c-27-7-43 5-38 36h38v33H83V0H34v-157H6v-33h28c-9-59 32-81 87-68v32" id="aF"/><g id="z"><use transform="matrix(0.11111111111111108,0,0,0.11111111111111108,0,0)" xlink:href="#aC"/><use transform="matrix(0.11111111111111108,0,0,0.11111111111111108,24.333333333333325,0)" xlink:href="#aF"/></g><path fill="#333" d="M115-3C79 11 28 4 28-45v-112H4v-33h27l15-45h31v45h36v33H77v99c-1 23 16 31 38 25v30" id="aG"/><path fill="#333" d="M102-93c0 74-22 123-52 168H0C30 29 54-18 53-93c0-74-22-123-53-168h50c30 45 52 94 52 168" id="aH"/><g id="A"><use transform="matrix(0.11111111111111108,0,0,0.11111111111111108,0,0)" xlink:href="#aG"/><use transform="matrix(0.11111111111111108,0,0,0.11111111111111108,13.222222222222218,0)" xlink:href="#aE"/><use transform="matrix(0.11111111111111108,0,0,0.11111111111111108,28.777777777777768,0)" xlink:href="#aD"/><use transform="matrix(0.11111111111111108,0,0,0.11111111111111108,53.11111111111109,0)" xlink:href="#aG"/><use transform="matrix(0.11111111111111108,0,0,0.11111111111111108,66.33333333333331,0)" xlink:href="#aw"/><use transform="matrix(0.11111111111111108,0,0,0.11111111111111108,90.66666666666664,0)" xlink:href="#aH"/></g><path fill="#333" d="M23 0v-37h61v-169l-59 37v-38l62-41h46v211h57V0H23" id="aI"/><path fill="#333" d="M128-127c34 4 56 21 59 58 7 91-148 94-172 28-4-9-6-17-7-26l51-5c1 24 16 35 40 36 23 0 39-12 38-36-1-31-31-36-65-34v-40c32 2 59-3 59-33 0-20-13-33-34-33s-33 13-35 32l-50-3c6-44 37-68 86-68 50 0 83 20 83 66 0 35-22 52-53 58" id="aJ"/><path fill="#333" d="M101-251c68 0 84 54 84 127C185-50 166 4 99 4S15-52 14-124c-1-75 17-127 87-127zm-1 216c37-5 36-46 36-89s4-89-36-89c-39 0-36 45-36 89 0 43-3 85 36 89" id="aK"/><g id="B"><use transform="matrix(0.06172839506172839,0,0,0.06172839506172839,0,0)" xlink:href="#aI"/><use transform="matrix(0.06172839506172839,0,0,0.06172839506172839,12.345679012345679,0)" xlink:href="#aJ"/><use transform="matrix(0.06172839506172839,0,0,0.06172839506172839,24.691358024691358,0)" xlink:href="#aK"/></g><path fill="#333" d="M195 0l-74-108L45 0H8l94-129-87-119h37l69 98 67-98h37l-84 118L233 0h-38" id="aL"/><g id="C"><use transform="matrix(0.06172839506172839,0,0,0.06172839506172839,0,0)" xlink:href="#aL"/><use transform="matrix(0.06172839506172839,0,0,0.06172839506172839,14.814814814814813,0)" xlink:href="#R"/><use transform="matrix(0.06172839506172839,0,0,0.06172839506172839,27.160493827160494,0)" xlink:href="#R"/><use transform="matrix(0.06172839506172839,0,0,0.06172839506172839,39.50617283950617,0)" xlink:href="#an"/></g><g id="D"><use transform="matrix(0.06172839506172839,0,0,0.06172839506172839,0,0)" xlink:href="#X"/><use transform="matrix(0.06172839506172839,0,0,0.06172839506172839,12.345679012345679,0)" xlink:href="#P"/><use transform="matrix(0.06172839506172839,0,0,0.06172839506172839,18.08641975308642,0)" xlink:href="#P"/><use transform="matrix(0.06172839506172839,0,0,0.06172839506172839,24.25925925925926,0)" xlink:href="#W"/><use transform="matrix(0.06172839506172839,0,0,0.06172839506172839,36.60493827160494,0)" xlink:href="#Q"/><use transform="matrix(0.06172839506172839,0,0,0.06172839506172839,43.95061728395061,0)" xlink:href="#N"/><use transform="matrix(0.06172839506172839,0,0,0.06172839506172839,48.82716049382716,0)" xlink:href="#O"/><use transform="matrix(0.06172839506172839,0,0,0.06172839506172839,61.172839506172835,0)" xlink:href="#ae"/><use transform="matrix(0.06172839506172839,0,0,0.06172839506172839,73.51851851851852,0)" xlink:href="#S"/></g><g id="E"><use transform="matrix(0.06172839506172839,0,0,0.06172839506172839,0,0)" xlink:href="#aI"/><use transform="matrix(0.06172839506172839,0,0,0.06172839506172839,12.345679012345679,0)" xlink:href="#aK"/><use transform="matrix(0.06172839506172839,0,0,0.06172839506172839,24.691358024691358,0)" xlink:href="#aK"/></g><g id="F"><use transform="matrix(0.06172839506172839,0,0,0.06172839506172839,0,0)" xlink:href="#Z"/><use transform="matrix(0.06172839506172839,0,0,0.06172839506172839,12.345679012345679,0)" xlink:href="#Q"/><use transform="matrix(0.06172839506172839,0,0,0.06172839506172839,19.691358024691358,0)" xlink:href="#X"/><use transform="matrix(0.06172839506172839,0,0,0.06172839506172839,32.03703703703704,0)" xlink:href="#ab"/><use transform="matrix(0.06172839506172839,0,0,0.06172839506172839,44.382716049382715,0)" xlink:href="#U"/><use transform="matrix(0.06172839506172839,0,0,0.06172839506172839,56.72839506172839,0)" xlink:href="#V"/><use transform="matrix(0.06172839506172839,0,0,0.06172839506172839,67.8395061728395,0)" xlink:href="#T"/><use transform="matrix(0.06172839506172839,0,0,0.06172839506172839,74.01234567901234,0)" xlink:href="#S"/></g><g id="G"><use transform="matrix(0.06172839506172839,0,0,0.06172839506172839,0,0)" xlink:href="#ab"/><use transform="matrix(0.06172839506172839,0,0,0.06172839506172839,12.345679012345679,0)" xlink:href="#W"/><use transform="matrix(0.06172839506172839,0,0,0.06172839506172839,24.691358024691358,0)" xlink:href="#S"/><use transform="matrix(0.06172839506172839,0,0,0.06172839506172839,35.80246913580247,0)" xlink:href="#T"/><use transform="matrix(0.06172839506172839,0,0,0.06172839506172839,41.97530864197531,0)" xlink:href="#N"/><use transform="matrix(0.06172839506172839,0,0,0.06172839506172839,46.851851851851855,0)" xlink:href="#O"/><use transform="matrix(0.06172839506172839,0,0,0.06172839506172839,59.19753086419753,0)" xlink:href="#R"/><use transform="matrix(0.06172839506172839,0,0,0.06172839506172839,71.54320987654322,0)" xlink:href="#T"/><use transform="matrix(0.06172839506172839,0,0,0.06172839506172839,77.71604938271605,0)" xlink:href="#N"/><use transform="matrix(0.06172839506172839,0,0,0.06172839506172839,82.5925925925926,0)" xlink:href="#X"/><use transform="matrix(0.06172839506172839,0,0,0.06172839506172839,94.93827160493828,0)" xlink:href="#O"/></g><path fill="#333" d="M128 0H69L1-190h53L99-40l48-150h52" id="aM"/><g id="H"><use transform="matrix(0.0802469135802469,0,0,0.0802469135802469,0,0)" xlink:href="#as"/><use transform="matrix(0.0802469135802469,0,0,0.0802469135802469,16.04938271604938,0)" xlink:href="#aM"/><use transform="matrix(0.0802469135802469,0,0,0.0802469135802469,32.09876543209876,0)" xlink:href="#as"/><use transform="matrix(0.0802469135802469,0,0,0.0802469135802469,48.14814814814814,0)" xlink:href="#aq"/><use transform="matrix(0.0802469135802469,0,0,0.0802469135802469,65.7222222222222,0)" xlink:href="#aG"/></g><path fill="#333" d="M135-194c53 0 70 44 70 98 0 56-19 98-73 100-31 1-45-17-59-34 3 33 2 69 2 105H25l-1-265h48c2 10 0 23 3 31 11-24 29-35 60-35zM114-30c33 0 39-31 40-66 0-38-9-64-40-64-56 0-55 130 0 130" id="aN"/><g id="I"><use transform="matrix(0.0802469135802469,0,0,0.0802469135802469,0,0)" xlink:href="#aN"/><use transform="matrix(0.0802469135802469,0,0,0.0802469135802469,17.57407407407407,0)" xlink:href="#aE"/><use transform="matrix(0.0802469135802469,0,0,0.0802469135802469,28.808641975308632,0)" xlink:href="#aC"/><use transform="matrix(0.0802469135802469,0,0,0.0802469135802469,46.382716049382694,0)" xlink:href="#at"/><use transform="matrix(0.0802469135802469,0,0,0.0802469135802469,63.95679012345676,0)" xlink:href="#aD"/><use transform="matrix(0.0802469135802469,0,0,0.0802469135802469,81.53086419753083,0)" xlink:href="#av"/><use transform="matrix(0.0802469135802469,0,0,0.0802469135802469,97.58024691358021,0)" xlink:href="#as"/><use transform="matrix(0.0802469135802469,0,0,0.0802469135802469,113.62962962962959,0)" xlink:href="#aE"/></g><g id="J"><use transform="matrix(0.0802469135802469,0,0,0.0802469135802469,0,0)" xlink:href="#at"/><use transform="matrix(0.0802469135802469,0,0,0.0802469135802469,17.57407407407407,0)" xlink:href="#aC"/><use transform="matrix(0.0802469135802469,0,0,0.0802469135802469,35.14814814814814,0)" xlink:href="#av"/><use transform="matrix(0.0802469135802469,0,0,0.0802469135802469,51.19753086419752,0)" xlink:href="#aD"/><use transform="matrix(0.0802469135802469,0,0,0.0802469135802469,68.7716049382716,0)" xlink:href="#ax"/><use transform="matrix(0.0802469135802469,0,0,0.0802469135802469,94.45061728395062,0)" xlink:href="#as"/><use transform="matrix(0.0802469135802469,0,0,0.0802469135802469,110.5,0)" xlink:href="#aq"/><use transform="matrix(0.0802469135802469,0,0,0.0802469135802469,128.07407407407405,0)" xlink:href="#aG"/><use transform="matrix(0.0802469135802469,0,0,0.0802469135802469,137.62345679012344,0)" xlink:href="#ap"/><use transform="matrix(0.0802469135802469,0,0,0.0802469135802469,153.6728395061728,0)" xlink:href="#aG"/><use transform="matrix(0.0802469135802469,0,0,0.0802469135802469,163.2222222222222,0)" xlink:href="#aA"/><use transform="matrix(0.0802469135802469,0,0,0.0802469135802469,171.24691358024688,0)" xlink:href="#aC"/><use transform="matrix(0.0802469135802469,0,0,0.0802469135802469,188.82098765432093,0)" xlink:href="#aq"/></g><path fill="#333" d="M147 0L96-86 75-71V0H25v-261h50v150l67-79h53l-66 74L201 0h-54" id="aO"/><g id="K"><use transform="matrix(0.0802469135802469,0,0,0.0802469135802469,0,0)" xlink:href="#aG"/><use transform="matrix(0.0802469135802469,0,0,0.0802469135802469,9.549382716049381,0)" xlink:href="#aE"/><use transform="matrix(0.0802469135802469,0,0,0.0802469135802469,20.783950617283946,0)" xlink:href="#ap"/><use transform="matrix(0.0802469135802469,0,0,0.0802469135802469,36.83333333333333,0)" xlink:href="#av"/><use transform="matrix(0.0802469135802469,0,0,0.0802469135802469,52.8827160493827,0)" xlink:href="#aO"/><use transform="matrix(0.0802469135802469,0,0,0.0802469135802469,68.93209876543209,0)" xlink:href="#aA"/><use transform="matrix(0.0802469135802469,0,0,0.0802469135802469,76.95679012345678,0)" xlink:href="#aq"/><use transform="matrix(0.0802469135802469,0,0,0.0802469135802469,94.53086419753086,0)" xlink:href="#ar"/></g><g id="L"><use transform="matrix(0.0802469135802469,0,0,0.0802469135802469,0,0)" xlink:href="#aN"/><use transform="matrix(0.0802469135802469,0,0,0.0802469135802469,17.57407407407407,0)" xlink:href="#aB"/><use transform="matrix(0.0802469135802469,0,0,0.0802469135802469,25.59876543209876,0)" xlink:href="#ap"/><use transform="matrix(0.0802469135802469,0,0,0.0802469135802469,41.64814814814814,0)" xlink:href="#aq"/><use transform="matrix(0.0802469135802469,0,0,0.0802469135802469,59.22222222222221,0)" xlink:href="#az"/></g><g id="M"><use transform="matrix(0.0802469135802469,0,0,0.0802469135802469,0,0)" xlink:href="#av"/><use transform="matrix(0.0802469135802469,0,0,0.0802469135802469,16.04938271604938,0)" xlink:href="#aC"/><use transform="matrix(0.0802469135802469,0,0,0.0802469135802469,33.62345679012345,0)" xlink:href="#aq"/><use transform="matrix(0.0802469135802469,0,0,0.0802469135802469,51.19753086419752,0)" xlink:href="#az"/><use transform="matrix(0.0802469135802469,0,0,0.0802469135802469,67.2469135802469,0)" xlink:href="#aD"/><use transform="matrix(0.0802469135802469,0,0,0.0802469135802469,84.82098765432094,0)" xlink:href="#ax"/><use transform="matrix(0.0802469135802469,0,0,0.0802469135802469,110.49999999999997,0)" xlink:href="#as"/><use transform="matrix(0.0802469135802469,0,0,0.0802469135802469,126.54938271604935,0)" xlink:href="#aE"/></g></defs></g></svg>