<svg width="19" height="20" xmlns="http://www.w3.org/2000/svg"><path d="M3.263 15.557c-.605 0-1.096.507-1.096 1.132 0 .625.49 1.132 1.096 1.132.605 0 1.096-.507 1.096-1.132 0-.625-.49-1.132-1.096-1.132zM15.348 1.874c-.605 0-1.096.507-1.096 1.132 0 .625.49 1.132 1.096 1.132.605 0 1.096-.507 1.096-1.132 0-.623-.488-1.13-1.092-1.132h-.004zm-7.933 4.58V7.84c0 .208.164.377.366.377h10.855c.2-.002.361-.17.361-.377V6.454a.371.371 0 0 0-.365-.377H7.776a.372.372 0 0 0-.363.377h.002zm4.175 6.4v-1.382a.372.372 0 0 0-.365-.377H.37a.371.371 0 0 0-.37.373v1.387c0 .208.164.377.365.377h10.856a.371.371 0 0 0 .37-.373v-.004zm7.334-1.856a.359.359 0 0 0-.248-.142l-1.334-.14a.366.366 0 0 0-.399.325c-.563 4.303-4.396 7.32-8.562 6.74a7.41 7.41 0 0 1-1.686-.443.358.358 0 0 0-.466.216l-.515 1.278a.38.38 0 0 0 .209.499c4.988 1.982 10.588-.588 12.507-5.741.278-.747.469-1.525.567-2.318a.38.38 0 0 0-.073-.274zM.08 7.802a.384.384 0 0 1-.044-.291C1.135 3.093 4.99.003 9.407 0a9.367 9.367 0 0 1 3.18.552.388.388 0 0 1 .223.491l-.474 1.295a.36.36 0 0 1-.46.215 7.376 7.376 0 0 0-2.47-.431 7.37 7.37 0 0 0-4.771 1.76A7.932 7.932 0 0 0 2.05 8.009a.359.359 0 0 1-.434.272L.309 7.979a.363.363 0 0 1-.23-.177z" fill="#50B68C"/></svg>